<?xml version="1.0" standalone="no"?>
<!DOCTYPE svg PUBLIC "-//W3C//DTD SVG 20010904//EN"
 "http://www.w3.org/TR/2001/REC-SVG-20010904/DTD/svg10.dtd">
<svg version="1.0" xmlns="http://www.w3.org/2000/svg"
 width="700.000000pt" height="700.000000pt" viewBox="0 0 700.000000 700.000000"
 preserveAspectRatio="xMidYMid meet">
<metadata>
Created by potrace 1.11, written by Peter Selinger 2001-2013
</metadata>
<g transform="translate(0.000000,700.000000) scale(0.100000,-0.100000)"
fill="#000000" stroke="none">
<path d="M844 5725 c-82 -42 -85 -175 -5 -217 14 -7 28 -15 31 -18 3 -3 51
-29 106 -58 88 -45 109 -52 158 -52 128 0 466 -45 546 -73 62 -21 79 -22 390
-22 262 1 342 4 415 17 50 10 151 20 225 23 122 5 287 32 348 56 37 15 54 69
41 126 -20 82 -31 105 -63 124 -35 21 -67 23 -129 10 -23 -5 -82 -15 -132 -22
-49 -6 -142 -24 -205 -40 -189 -45 -269 -52 -535 -46 -193 5 -256 10 -322 26
-46 11 -151 30 -235 41 -83 11 -168 24 -187 30 -20 5 -73 14 -118 19 -61 8
-100 20 -153 47 -84 43 -133 51 -176 29z"/>
<path d="M3940 5713 c-54 -19 -79 -39 -99 -74 -26 -45 -25 -48 42 -110 79 -74
237 -129 372 -129 44 0 141 -9 215 -19 74 -11 209 -25 300 -31 217 -14 1343
-14 1407 0 26 6 82 28 123 49 95 48 123 88 117 170 -3 46 -9 59 -35 82 -46 41
-72 44 -181 21 -53 -11 -153 -23 -223 -27 -70 -3 -180 -15 -245 -28 -110 -20
-147 -22 -523 -22 l-405 0 -175 38 c-146 31 -202 39 -335 43 -131 5 -166 10
-193 25 -32 18 -125 25 -162 12z"/>
<path d="M4935 1679 c-27 -5 -216 -15 -420 -24 -280 -12 -399 -14 -490 -6 -68
6 -514 12 -1030 13 -893 3 -911 3 -950 -17 -50 -25 -71 -65 -59 -113 5 -19 21
-44 36 -55 25 -19 32 -19 209 -7 125 9 225 10 318 4 75 -5 413 -9 751 -9 567
-1 630 -2 810 -23 107 -12 230 -22 274 -22 84 0 364 29 531 56 55 8 152 18
215 21 63 3 123 10 133 15 31 16 50 74 37 114 -19 58 -38 64 -185 63 -71 -1
-152 -5 -180 -10z"/>
</g>
</svg>
